<svg width="90" height="100" viewBox="0 0 90 100" xmlns="http://www.w3.org/2000/svg"><title>hand</title><g fill="#ffffff" fill-rule="evenodd"><path d="M48.24 0C37.992 0 33.935 9.125 36.078 17.116c2.91 10.88-7.905 16.932-10.362 18.472-9.46 5.91-8.355 12.554-9.302 13.964-1.2-2.972-4.112-5.074-7.514-5.074-4.48 0-8.114 3.63-8.114 8.108v32.32c0 4.478 3.635 8.115 8.114 8.115 4.018 0 7.343-2.927 7.983-6.768C21.08 92.19 33.04 100 43.383 100H58.69c7.46 0 13.514-6.052 13.514-13.515 0-1.045-.128-2.054-.354-3.024.23-.415.447-.842.65-1.267 6.268-1.176 11.015-6.665 11.015-13.272 0-2.6-.743-5.008-2.01-7.073 4.555-2.172 7.71-6.802 7.71-12.185 0-7.466-6.053-13.514-13.52-13.514H56.234c4.73-4.727 4.39-12.346 4.39-18.923C60.622 9.763 55.697 0 48.24 0m0 6.58c2.395 0 5.803 5.506 5.803 10.645v1.265c.016 5.166.034 10.508-2.46 13.003-1.886 1.88-2.446 4.712-1.433 7.172 1.02 2.46 3.42 4.062 6.083 4.062h19.463c3.824 0 6.938 3.11 6.938 6.935 0 2.687-1.52 5.08-3.96 6.247-1.683.8-2.947 2.277-3.48 4.066-.527 1.79-.275 3.72.7 5.306.688 1.128 1.038 2.35 1.038 3.64 0 3.328-2.375 6.19-5.646 6.805-2.062.385-3.812 1.73-4.72 3.618-.153.32-.316.637-.487.948-.78 1.42-1.01 3.076-.646 4.654.126.533.188 1.038.188 1.54 0 3.822-3.11 6.934-6.935 6.934H43.384c-8.042 0-18.043-6.6-21.127-10.965-1.25-1.77-3.27-2.78-5.374-2.78-.487 0-.978.052-1.468.164-2.6.597-4.584 2.7-5.022 5.332-.106.63-.65 1.27-1.493 1.27-.844 0-1.533-.688-1.533-1.532V52.587c0-.84.688-1.528 1.533-1.528.756 0 1.234.516 1.41.956.915 2.26 3 3.83 5.422 4.083l.68.03c2.18 0 4.233-1.078 5.463-2.907.96-1.43 1.24-2.9 1.468-4.08.417-2.184.938-4.9 5.868-7.98l.34-.208c13.995-8.61 14.73-18.64 12.882-25.542-.677-2.54-.303-5.156.98-6.83C44.445 7.24 46.023 6.58 48.24 6.58" id="Shape"/><path d="M40.91 69.25H27.227c-1.396 0-2.53-1.135-2.53-2.53 0-1.398 1.134-2.533 2.53-2.533h13.68c1.397 0 2.533 1.135 2.533 2.532 0 1.395-1.134 2.53-2.53 2.53M27.355 61.48c-1.117 0-2.137-.743-2.443-1.87-.365-1.35.433-2.74 1.78-3.104L40.13 52.87c1.355-.378 2.735.434 3.104 1.782.365 1.35-.433 2.74-1.782 3.104l-13.436 3.637-.66.088z" id="Shape"/><path d="M40.79 81.12l-.66-.09-13.437-3.633c-1.35-.365-2.146-1.755-1.78-3.104.363-1.346 1.754-2.154 3.103-1.783l13.436 3.634c1.35.365 2.147 1.755 1.783 3.104-.304 1.128-1.326 1.87-2.444 1.87"/></g></svg>