<svg width="89" height="76" viewBox="0 0 89 76" xmlns="http://www.w3.org/2000/svg"><title>Path</title><path d="M10.975 11.1l.01-.033C18.42 3.737 27.288.1 37.59.152l-.02.012C47.99.147 56.85 3.76 64.15 11l.045.03c5.697 5.826 9.173 12.546 10.43 20.163l7.788-7.76c.652-.658 1.44-.99 2.37-.994.92 0 1.706.326 2.355.976.658.653.99 1.442.993 2.37.002.92-.326 1.706-.977 2.357L73.057 42.227c-.652.657-1.442.988-2.37.993-.92 0-1.705-.326-2.355-.977l-14.18-14.158c-.656-.652-.987-1.44-.993-2.37 0-.92.326-1.706.978-2.355.652-.66 1.44-.99 2.37-.994.92 0 1.705.326 2.355.978l9.163 9.17c-1.01-6.357-3.89-11.96-8.636-16.807l.047.03C53.43 9.8 46.14 6.842 37.567 6.86l-.022.01c-8.46-.046-15.74 2.946-21.838 8.974l.008-.033C10.29 21.276 7.323 27.904 6.817 35.7l.01-.035c-.025.515-.018 1.01.022 1.488l.016.28c-.04 8.596 2.93 15.888 8.906 21.876 6.07 5.982 13.378 8.988 21.923 9.02l-.043.025c.97-.007 1.93-.062 2.88-.16l.022-.014c4.6-.407 8.8-1.752 12.592-4.036.797-.475 1.65-.6 2.553-.377.895.216 1.578.716 2.05 1.5.475.796.6 1.647.377 2.553-.218.895-.72 1.58-1.502 2.05-4.65 2.822-9.8 4.486-15.447 4.993l.02-.012c-1.157.117-2.325.176-3.506.178l-.043.025c-10.363-.05-19.222-3.71-26.578-10.983l-.012-.02C3.775 56.786.143 47.943.16 37.52c-.054-.712-.065-1.445-.032-2.205l.03-.045c.61-9.475 4.216-17.53 10.817-24.17z" fill="#000" fill-rule="evenodd"/></svg>