<svg width="89" height="72" viewBox="0 0 89 72" xmlns="http://www.w3.org/2000/svg"><title>Shape</title><path d="M29.406 71.6c32.55-.812 50.324-27.89 50.324-51.423 0-.784-.017-1.564-.052-2.34 3.558-2.548 6.647-5.733 9.09-9.358-3.268 1.437-6.778 2.408-10.462 2.845 3.76-2.237 6.648-5.78 8.008-10.002-3.52 2.072-7.418 3.576-11.566 4.387C71.423 2.197 66.69 0 61.452 0c-10.06 0-18.217 8.096-18.217 18.08 0 1.418.162 2.797.473 4.12-15.14-.754-28.56-7.952-37.546-18.89-1.568 2.67-2.466 5.777-2.466 9.09 0 6.27 3.216 11.806 8.104 15.048-2.987-.093-5.795-.907-8.252-2.26v.226c0 8.76 6.277 16.067 14.61 17.728-1.528.413-3.136.635-4.8.635-1.17 0-2.313-.114-3.426-.325 2.32 7.183 9.045 12.41 17.017 12.557-6.236 4.847-14.09 7.738-22.623 7.738-1.464 0-2.908-.085-4.327-.25v.01c7.778 4.944 16.965 7.892 26.838 8.09h2.568" fill="#FFF" fill-rule="evenodd"/></svg>