<svg width="55" height="49" viewBox="0 0 55 49" xmlns="http://www.w3.org/2000/svg"><g fill="#fff" fill-rule="evenodd"><path id="Shape" d="M54.36 15.65l.4 25.657-3.39 4.802-.145-25.895v-.035zM37.328 13.455l-6.723-10.49c-.037-.037-.146-.055-.22-.018l-18.138 7.43 2.81 3.642 1.974 2.554c.454.035 1.56.072 4.224.072 6.36 0 14.84-.218 17.848-.417-.072-.11-.127-.22-.217-.327l-1.557-2.448zm2.5-.07l14.406-.363-4.44 6.397H1.573l7.068-5.24 3.77-.09-1.94-2.5c-.036-.072-.09-.127-.126-.2-.31-.525-.363-1.176-.146-1.757.2-.508.598-.94 1.107-1.196.055-.018.09-.035.145-.053L29.534.97c.273-.124.6-.198.943-.198.816 0 1.56.417 1.957 1.088l7.394 11.525zM49.738 41.434l.018 7.193H.613v-7.193zM49.63 21.012l.036 7.157H.613V21.01zM41.06 33.66l-2.265 2.157.525 3.062-2.808-1.45-2.79 1.45.524-3.063-2.266-2.157 3.135-.453 1.397-2.772 1.414 2.772zM28.846 33.66l-2.266 2.157.545 3.062-2.81-1.45-2.807 1.45.543-3.063-2.265-2.157 3.12-.453 1.41-2.772 1.396 2.772z"/><path d="M16.652 33.66l-2.265 2.157.525 3.062-2.808-1.45-2.81 1.45.544-3.063-2.264-2.157 3.133-.453 1.397-2.772 1.412 2.772"/></g></svg>